<svg width="1071" height="29" viewBox="0 0 1071 29" fill="none" xmlns="http://www.w3.org/2000/svg">
<path d="M19.2721 24.8438V19.2834H13.2168C11.5701 19.2834 10.0448 20.1479 9.20137 21.5591L7.23828 24.8438H19.2721Z" fill="#63D2F9"/>
<path d="M0 3.48267V9.04306H15.949L19.2722 3.48267H0Z" fill="#4E5EE4"/>
<path d="M7.63304 12.1729L0.0175781 24.8439H6.50577L15.6125 9.68481H12.0297C10.2276 9.68481 8.55802 10.6296 7.63304 12.1729Z" fill="#63B0F9"/>
<path d="M33.0774 19.5071C29.8148 19.5071 27.4141 17.1356 27.4141 13.9532C27.4141 10.8014 29.8302 8.39935 33.0927 8.39935C36.3553 8.39935 38.7714 10.832 38.7714 13.9532C38.7714 17.105 36.3399 19.5071 33.0774 19.5071ZM33.0927 17.564C35.1549 17.564 36.6323 16.034 36.6323 13.9532C36.6323 11.903 35.1549 10.3424 33.0927 10.3424C31.0152 10.3424 29.5378 11.903 29.5378 13.9532C29.5378 16.034 31.0152 17.564 33.0927 17.564ZM40.9561 22.8272V11.2604H42.926V12.2855H43.0337C43.2492 11.9489 43.9879 11.0615 45.4652 11.0615C47.7275 11.0615 49.2818 12.7445 49.2818 15.2537C49.2818 17.7629 47.7429 19.5071 45.5268 19.5071C44.0956 19.5071 43.3261 18.7115 43.0645 18.2678H42.9568V22.8272H40.9561ZM45.0805 17.7017C46.3732 17.7017 47.2504 16.7072 47.2504 15.2843C47.2504 13.8155 46.3732 12.8669 45.0651 12.8669C43.7416 12.8669 42.9106 13.9226 42.9106 15.2843C42.9106 16.7837 43.834 17.7017 45.0805 17.7017ZM55.0061 19.5071C52.6207 19.5071 50.9279 17.7323 50.9279 15.3302C50.9279 12.7904 52.6361 11.0615 55.0061 11.0615C57.6069 11.0615 59.0227 12.974 59.0227 15.2384V15.8657H52.867C52.9285 17.0897 53.7749 17.9159 55.0676 17.9159C56.0526 17.9159 56.8066 17.4569 57.0836 16.799H58.9458C58.5456 18.4361 57.099 19.5071 55.0061 19.5071ZM52.8977 14.4581H57.1144C57.0221 13.3718 56.1757 12.6527 55.0061 12.6527C53.8827 12.6527 53.0208 13.4483 52.8977 14.4581ZM61.1766 19.3082V11.2604H63.0849V12.2396H63.1927C63.5158 11.6429 64.3161 11.0615 65.4703 11.0615C67.2862 11.0615 68.3943 12.3314 68.3943 14.045V19.3082H66.3936V14.5652C66.3936 13.586 65.7627 12.9281 64.8393 12.9281C63.8698 12.9281 63.1773 13.6931 63.1773 14.7029V19.3082H61.1766ZM70.3789 19.3082V17.4875L75.9807 10.4648V10.3577H70.579V8.59825H78.5353V10.4036L72.9336 17.4263V17.5487H78.5661V19.3082H70.3789ZM83.9826 19.5071C81.5972 19.5071 79.9044 17.7323 79.9044 15.3302C79.9044 12.7904 81.6126 11.0615 83.9826 11.0615C86.5834 11.0615 87.9992 12.974 87.9992 15.2384V15.8657H81.8434C81.905 17.0897 82.7514 17.9159 84.0441 17.9159C85.029 17.9159 85.7831 17.4569 86.0601 16.799H87.9222C87.5221 18.4361 86.0755 19.5071 83.9826 19.5071ZM81.8742 14.4581H86.0909C85.9986 13.3718 85.1522 12.6527 83.9826 12.6527C82.8591 12.6527 81.9973 13.4483 81.8742 14.4581ZM90.1531 22.8272V11.2604H92.123V12.2855H92.2307C92.4462 11.9489 93.1848 11.0615 94.6622 11.0615C96.9245 11.0615 98.4788 12.7445 98.4788 15.2537C98.4788 17.7629 96.9398 19.5071 94.7238 19.5071C93.2926 19.5071 92.5231 18.7115 92.2615 18.2678H92.1538V22.8272H90.1531ZM94.2775 17.7017C95.5702 17.7017 96.4474 16.7072 96.4474 15.2843C96.4474 13.8155 95.5702 12.8669 94.2621 12.8669C92.9386 12.8669 92.1076 13.9226 92.1076 15.2843C92.1076 16.7837 93.031 17.7017 94.2775 17.7017ZM100.633 22.8272V11.2604H102.603V12.2855H102.71C102.926 11.9489 103.664 11.0615 105.142 11.0615C107.404 11.0615 108.958 12.7445 108.958 15.2537C108.958 17.7629 107.419 19.5071 105.203 19.5071C103.772 19.5071 103.003 18.7115 102.741 18.2678H102.633V22.8272H100.633ZM104.757 17.7017C106.05 17.7017 106.927 16.7072 106.927 15.2843C106.927 13.8155 106.05 12.8669 104.742 12.8669C103.418 12.8669 102.587 13.9226 102.587 15.2843C102.587 16.7837 103.511 17.7017 104.757 17.7017ZM114.683 19.5071C112.297 19.5071 110.604 17.7323 110.604 15.3302C110.604 12.7904 112.313 11.0615 114.683 11.0615C117.283 11.0615 118.699 12.974 118.699 15.2384V15.8657H112.544C112.605 17.0897 113.452 17.9159 114.744 17.9159C115.729 17.9159 116.483 17.4569 116.76 16.799H118.622C118.222 18.4361 116.776 19.5071 114.683 19.5071ZM112.574 14.4581H116.791C116.699 13.3718 115.852 12.6527 114.683 12.6527C113.559 12.6527 112.697 13.4483 112.574 14.4581ZM122.823 19.3082C121.407 19.3082 120.607 18.4667 120.607 17.0438V7.83325H122.608V16.8602C122.608 17.3192 122.838 17.564 123.254 17.564H123.577V19.3082H122.823ZM126.501 10.1894C125.777 10.1894 125.269 9.74574 125.269 9.02664C125.269 8.33815 125.777 7.87915 126.501 7.87915C127.224 7.87915 127.732 8.33815 127.732 9.02664C127.732 9.74574 127.224 10.1894 126.501 10.1894ZM125.5 19.3082V11.2604H127.501V19.3082H125.5ZM129.932 19.3082V11.2604H131.84V12.2396H131.948C132.271 11.6429 133.071 11.0615 134.225 11.0615C136.041 11.0615 137.149 12.3314 137.149 14.045V19.3082H135.149V14.5652C135.149 13.586 134.518 12.9281 133.594 12.9281C132.625 12.9281 131.932 13.6931 131.932 14.7029V19.3082H129.932Z" fill="#282846"/>
<path d="M245.913 16.8481H254.975L250.184 9.13862L241.389 23.0777H237.386L248.083 6.3339C248.549 5.65738 249.324 5.24866 250.184 5.24866C251.015 5.24866 251.79 5.64329 252.241 6.30571L262.981 23.0777H258.978L257.09 19.9629H247.914L245.913 16.8481ZM287.491 19.9629V5.41779H284.094V21.3864C284.094 21.8233 284.263 22.2461 284.587 22.5703C284.911 22.8945 285.348 23.0777 285.827 23.0777H301.317L303.318 19.9629H287.491ZM231.297 17.3555C234.595 17.3555 237.273 14.6917 237.273 11.3937C237.273 8.09566 234.595 5.41779 231.297 5.41779H216.438V23.0777H219.833V8.53258H231.072C232.65 8.53258 233.919 9.81513 233.919 11.3937C233.919 12.9722 232.65 14.2548 231.072 14.2548L221.496 14.2407L231.636 23.0777H236.569L229.747 17.3555H231.297ZM195.537 23.0777C190.661 23.0777 186.705 19.1313 186.705 14.2548C186.705 9.37822 190.661 5.41779 195.537 5.41779H205.801C210.678 5.41779 214.631 9.37822 214.631 14.2548C214.631 19.1313 210.678 23.0777 205.801 23.0777H195.537ZM205.573 19.9629C208.731 19.9629 211.289 17.4118 211.289 14.2548C211.289 11.0977 208.731 8.53258 205.573 8.53258H195.763C192.606 8.53258 190.047 11.0977 190.047 14.2548C190.047 17.4118 192.606 19.9629 195.763 19.9629H205.573ZM270.07 23.0777C265.194 23.0777 261.233 19.1313 261.233 14.2548C261.233 9.37822 265.194 5.41779 270.07 5.41779H282.262L280.274 8.53258H270.296C267.139 8.53258 264.574 11.0977 264.574 14.2548C264.574 17.4118 267.139 19.9629 270.296 19.9629H282.543L280.542 23.0777H270.07ZM311.605 19.9629C308.998 19.9629 306.785 18.2152 306.109 15.8051H320.626L322.627 12.6903H306.109C306.785 10.2943 308.998 8.53258 311.605 8.53258H321.57L323.585 5.41779H311.38C306.503 5.41779 302.543 9.37822 302.543 14.2548C302.543 19.1313 306.503 23.0777 311.38 23.0777H321.852L323.853 19.9629H311.605Z" fill="#EA1B22"/>
<path d="M509.385 9.84768C510.46 10.7176 509.322 12.0936 508.373 11.3977C507.202 10.6544 504.545 10.3064 504.213 11.9512C503.786 14.5451 510.666 13.0584 510.555 17.2655C510.445 21.2829 504.624 21.3778 502.442 19.5747C501.92 19.1478 501.936 18.4518 502.22 18.0247C502.631 17.6136 503.09 17.4712 503.628 17.914C504.925 18.7997 508.262 19.464 508.499 17.2181C508.294 14.8772 501.714 16.2849 502.204 11.7931C502.568 8.72474 507.202 8.17111 509.385 9.84768ZM499.009 10.4645V16.19C499.009 22.1053 489.472 22.1053 489.472 16.19V10.4645C489.472 9.04112 491.544 8.9778 491.544 10.4645V16.19C491.544 19.3058 496.937 19.4957 496.937 16.19V10.4645C496.937 9.05683 499.009 8.94613 499.009 10.4645ZM433.701 9.02529C436.469 9.16753 439.364 11.0813 439.364 14.8299C439.364 18.5783 436.469 20.5238 433.701 20.5238C430.775 20.6503 427.739 18.7048 427.739 14.8299C427.739 10.939 430.775 9.02529 433.701 9.02529ZM447.636 9.42059C451.653 9.42059 452.476 14.7982 449.123 16.1425L451.226 18.7048C452.049 19.9228 450.404 21.0931 449.455 19.8911L447.067 16.4748H444.583V19.3375C444.583 20.7135 442.48 20.761 442.48 19.3691V10.3855C442.48 9.83184 442.907 9.42059 443.429 9.42059H447.636ZM414.864 9.27835C415.322 9.27835 415.591 9.54724 415.86 9.84768L419.34 14.5451L422.946 9.67365C423.468 9.0253 424.749 9.27835 424.749 10.3696V19.2743C424.749 19.9701 424.306 20.3656 423.8 20.3656C423.23 20.3656 422.788 19.9701 422.788 19.2743V13.4222L420.162 16.7437C419.593 17.4395 418.881 17.4395 418.359 16.7437L416.002 13.4222V19.2743C416.002 19.9701 415.433 20.3656 414.864 20.3656C414.357 20.3656 413.915 19.9701 413.915 19.2743V10.3696C413.915 9.54725 414.61 9.27835 414.864 9.27835ZM459.103 9.27835C461.159 9.27835 463.01 10.6544 463.01 13.2957C463.01 15.7946 461.159 17.1865 459.103 17.1865H456.462V19.2743C456.462 19.9701 456.019 20.3656 455.45 20.3656C454.928 20.3656 454.374 19.9701 454.374 19.2743V10.3696C454.374 9.84768 454.785 9.27835 455.45 9.27835H459.103ZM474.208 9.42058C474.762 9.42058 475.189 9.83184 475.189 10.4013V19.385C475.189 19.9385 474.762 20.3656 474.208 20.3656C473.639 20.3656 473.133 19.9385 473.133 19.385V15.9212H467.977V19.385C467.977 19.9385 467.565 20.3656 467.012 20.3656C466.3 20.3656 465.889 19.9385 465.889 19.385V10.4013C465.889 9.83185 466.3 9.42058 467.012 9.42058C467.565 9.42058 467.977 9.83184 467.977 10.4013V13.8493H473.133V10.4013C473.133 9.83185 473.639 9.42058 474.208 9.42058ZM485.217 9.42058C486.672 9.42058 486.64 11.4767 485.217 11.4767H480.662V13.8493H484.647C486.055 13.8493 486.055 15.9212 484.647 15.9212H480.662V18.2936H485.486C486.925 18.2936 487.036 20.3656 485.486 20.3656H479.539C478.985 20.3656 478.558 19.9385 478.558 19.385V10.4013C478.558 9.83185 478.985 9.42058 479.539 9.42058H485.217ZM433.527 11.0813C431.756 11.0813 429.826 12.3309 429.826 14.8299C429.826 17.313 431.756 18.5783 433.527 18.5783C435.346 18.5783 437.292 17.313 437.292 14.8299C437.292 12.3309 435.346 11.0813 433.527 11.0813ZM459.103 11.2712H456.462V15.2095H459.103C460.163 15.2095 461.001 14.2763 461.001 13.2957C461.001 12.1886 460.163 11.2712 459.103 11.2712ZM447.636 11.3344H444.583V14.6558H447.636C449.692 14.6558 449.819 11.3344 447.636 11.3344Z" fill="#3DB5E6"/>
<path d="M401.369 17.7239C399.827 23.9189 394.185 28.3264 387.54 28.3264C380.866 28.3264 375.272 23.6581 373.793 17.4375C375.572 17.4375 377.234 17.4456 378.006 17.4456C378.37 17.4456 378.44 17.4519 378.462 17.4504C379.042 17.4218 379.77 17.2302 380.255 16.0522L382.101 11.2236L386.2 21.0938C386.569 21.8806 387.184 21.8248 387.551 21.8248H387.586C388.302 21.8248 388.613 21.5739 388.885 21.0549L393.516 11.2976L395.095 15.695L395.192 15.9079C395.526 16.6406 395.766 17.3642 396.592 17.4588C396.763 17.4783 398.741 17.4437 401.409 17.4437C401.409 17.4437 401.409 17.4608 401.369 17.7239Z" fill="#3DB5E6"/>
<path d="M401.822 14.0751C401.822 14.1489 401.822 14.3342 401.82 14.3342H401.817H397.56L395.076 7.39596C394.855 6.87996 394.523 6.1064 393.554 6.1064C392.961 6.1064 392.426 6.59592 392.122 7.40377L387.619 17.8332L383.285 7.46703C382.861 6.54636 382.567 6.11336 381.719 6.11336C381.143 6.11336 380.72 6.3256 380.26 7.41627L377.687 14.4373L373.413 14.4328C373.41 14.326 373.409 14.2192 373.409 14.1124C373.409 6.30766 379.736 0 387.541 0C395.346 0 401.822 6.27043 401.822 14.0751Z" fill="#D8292F"/>
<path d="M690.325 12.8864V15.7458H692.335V18.5829C692.34 18.8002 692.331 19.0321 692.3 19.2317L692.283 19.3286C692.28 19.3502 692.276 19.3724 692.271 19.3952L692.255 19.4649C692.252 19.4768 692.249 19.4888 692.245 19.5009L692.222 19.5745C692.041 20.0969 691.497 20.7589 690.274 20.7589C688.972 20.7589 688.45 19.9989 688.307 19.4649L688.29 19.3952L688.277 19.3286C688.241 19.1098 688.226 18.8364 688.226 18.5829V9.62205C688.226 9.3403 688.243 9.03488 688.294 8.78607L688.328 8.63487C688.331 8.6244 688.333 8.61376 688.336 8.60296L688.355 8.53637C688.359 8.52499 688.362 8.51347 688.366 8.50184L688.391 8.43065C688.577 7.93556 689.068 7.27616 690.264 7.27616C691.187 7.27616 691.683 7.65218 691.949 8.04082L691.996 8.11375C692.011 8.13805 692.025 8.16231 692.038 8.18644L692.075 8.25836L692.108 8.32899L692.136 8.39777L692.161 8.4642L692.181 8.52772L692.198 8.58781L692.212 8.64394L692.224 8.69558C692.229 8.72126 692.234 8.74852 692.238 8.77686L692.25 8.86463C692.251 8.87963 692.253 8.89478 692.255 8.91001L692.267 9.04765L692.275 9.17965L692.282 9.35963L692.283 9.45186V10.54H697.221L697.222 9.86262L697.225 9.62037L697.224 9.43259L697.22 9.21395L697.216 9.09624L697.207 8.91276L697.195 8.72481L697.184 8.59915C696.85 5.289 694.362 4.01545 691.334 3.79384L691.132 3.78061L690.928 3.77044C690.825 3.7661 690.722 3.76289 690.619 3.76076L690.411 3.75793C690.377 3.75758 690.342 3.75758 690.307 3.75758L690.099 3.759C690.065 3.75947 690.03 3.76007 689.995 3.76079L689.789 3.76655L689.585 3.7753L689.381 3.78708L689.18 3.80197C689.113 3.80745 689.046 3.81347 688.98 3.82002L688.782 3.8413C688.749 3.84512 688.717 3.84908 688.684 3.85318L688.489 3.87942C688.037 3.9446 687.602 4.03744 687.189 4.16157L687.014 4.21669C685.101 4.84436 683.71 6.17885 683.425 8.59915L683.395 8.86782L683.375 9.07583L683.356 9.29391L683.341 9.51088C683.332 9.65267 683.326 9.78625 683.326 9.89672L683.326 18.2455L683.328 18.3492L683.332 18.5067L683.337 18.6171L683.344 18.735L683.353 18.8632L683.364 19.0045L683.386 19.2469L683.404 19.4328C683.681 22.5088 686.013 23.8772 688.865 24.2L689.065 24.2209C689.4 24.2528 689.741 24.2708 690.086 24.2759L690.294 24.2774L690.502 24.2759C690.849 24.2708 691.192 24.2528 691.528 24.2209L691.728 24.2C694.59 23.8772 696.907 22.5088 697.188 19.4328L697.211 19.1616L697.228 18.9321L697.243 18.6749L697.252 18.4534L697.26 18.1398V12.8864H690.325ZM656.278 4.28501H651.32V18.7896C651.328 19.0424 651.32 19.3263 651.276 19.5345L651.262 19.5977L651.243 19.6648C651.237 19.6879 651.23 19.7115 651.222 19.7355L651.196 19.8091C651.009 20.3078 650.532 20.9585 649.392 20.9585C648.323 20.9585 647.835 20.3712 647.63 19.8849L647.6 19.8091C647.596 19.7966 647.591 19.7842 647.587 19.772L647.564 19.6998L647.544 19.6308C647.541 19.6196 647.539 19.6085 647.536 19.5977L647.522 19.5345C647.473 19.3263 647.467 19.0424 647.473 18.7896V4.28501H642.516V18.3394L642.515 18.4524L642.517 18.65L642.523 18.9407L642.537 19.294L642.547 19.4719L642.553 19.5663L642.559 19.6358C642.802 22.236 644.328 23.5895 646.482 24.1558L646.666 24.2018C647.066 24.2975 647.488 24.3672 647.925 24.4137L648.129 24.4336L648.334 24.4502L648.542 24.4637C648.646 24.4696 648.751 24.4744 648.857 24.4781L649.07 24.4839L649.284 24.4868C649.32 24.4871 649.356 24.4871 649.392 24.4871L649.608 24.4857C649.644 24.4852 649.679 24.4846 649.715 24.4839L649.928 24.4781C650.034 24.4744 650.139 24.4696 650.244 24.4637L650.452 24.4502L650.658 24.4336L650.861 24.4137C653.761 24.1057 655.937 22.7854 656.236 19.6358L656.24 19.6044L656.248 19.5219L656.26 19.3574L656.271 19.1582L656.277 19.0143L656.283 18.7935L656.285 18.65L656.284 18.5152L656.281 18.3937C656.28 18.3748 656.279 18.3567 656.278 18.3394V4.28501ZM610.718 4.28501L608.244 19.6111L605.772 4.28501H597.773L597.349 23.8915H602.249L602.382 5.74119L605.754 23.8915H610.725L614.1 5.74119L614.233 23.8915H619.146L618.707 4.28501H610.718ZM581.103 4.28501L577.471 23.8915H582.767L585.504 5.74119L588.175 23.8915H593.435L589.818 4.28501H581.103ZM673.608 20.0705L668.991 4.28501H661.715V23.6871H666.528L666.249 7.3965L671.207 23.6871H678.185V4.28501H673.341L673.608 20.0705ZM629.087 9.38766C629 9.00046 629.025 8.58908 629.071 8.37408C629.083 8.31702 629.098 8.25949 629.116 8.20205L629.145 8.11603C629.341 7.57248 629.798 7.06191 630.847 7.06191C631.98 7.06191 632.644 7.76784 632.644 8.82725V10.0261H637.478V8.65957C637.478 5.57568 635.459 4.38938 633.303 3.97359L633.125 3.94113L632.947 3.912L632.769 3.88606L632.591 3.86317L632.413 3.8432L632.236 3.826C632.177 3.82071 632.118 3.81587 632.06 3.81144L631.884 3.79937L631.71 3.78966L631.537 3.78218L631.366 3.77677L631.197 3.7733L630.948 3.77143L630.838 3.77181L630.619 3.77493C630.583 3.77572 630.547 3.77663 630.511 3.77768L630.295 3.78558C630.223 3.78875 630.152 3.79246 630.081 3.79672L629.869 3.81116C626.92 4.03674 624.619 5.24804 624.159 8.08859C624.023 8.95363 623.989 9.72149 624.206 10.7013C624.547 12.3115 625.888 13.4573 627.428 14.4183L627.666 14.5647C627.706 14.5889 627.746 14.613 627.786 14.6369L628.028 14.7794L628.271 14.9195L628.516 15.0576L628.882 15.2611L629.845 15.7888L630.079 15.9185L630.309 16.0478L630.534 16.1769L630.754 16.306C631.804 16.9305 632.644 17.5639 632.947 18.3211C633.114 18.7709 633.078 19.338 632.997 19.6998L632.983 19.7581C632.963 19.8451 632.938 19.9321 632.906 20.0177L632.872 20.1027C632.65 20.623 632.163 21.0665 631.093 21.0665C629.873 21.0665 629.139 20.3651 629.139 19.308L629.137 17.4263H623.934V18.922C623.934 22.4326 626.162 23.9575 628.951 24.4103L629.159 24.4419C629.298 24.4616 629.438 24.4788 629.58 24.4936L629.793 24.5139C630.042 24.5355 630.294 24.5498 630.548 24.5573L630.766 24.5621C630.803 24.5626 630.839 24.563 630.876 24.5633L630.985 24.5637C631.058 24.5637 631.131 24.5632 631.203 24.5621L631.42 24.5574C631.456 24.5563 631.492 24.5551 631.527 24.5538L631.741 24.5443C631.812 24.5405 631.882 24.5363 631.953 24.5314L632.162 24.5153C632.301 24.5034 632.439 24.4892 632.575 24.4728L632.778 24.4464L632.979 24.4165C633.045 24.4059 633.111 24.3948 633.177 24.383L633.372 24.3459C635.734 23.8728 637.491 22.5899 637.843 20.1234C637.892 19.7555 637.922 19.4158 637.938 19.1052L637.947 18.9025C637.948 18.8694 637.949 18.8368 637.95 18.8044L637.953 18.6148V18.434L637.95 18.2621L637.944 18.0991L637.936 17.9451C637.935 17.9202 637.933 17.8957 637.932 17.8715L637.921 17.7312L637.909 17.6001L637.895 17.4782L637.874 17.3128L637.851 17.1686L637.822 17.0097L637.809 16.9447C637.468 15.2373 635.974 14.0314 634.313 13.0387L634.075 12.8983L633.835 12.7606L633.594 12.6255L633.232 12.4271L632.753 12.1697L631.935 11.7346L631.598 11.5524C631.561 11.5323 631.525 11.5122 631.488 11.4921L631.273 11.372L631.064 11.2523C630.033 10.655 629.254 10.0684 629.087 9.38766ZM565.324 9.33957C565.235 8.96902 565.249 8.57921 565.294 8.3527L565.313 8.26789L565.335 8.18397C565.498 7.59523 565.944 6.9884 567.098 6.9884C568.245 6.9884 568.92 7.70113 568.92 8.76909V9.98257H573.811V8.60519C573.811 5.66231 571.98 4.42639 569.934 3.94293L569.756 3.90276C569.607 3.87083 569.457 3.84271 569.307 3.81803L569.126 3.79004L568.946 3.76521L568.766 3.74342L568.586 3.72451C568.526 3.71867 568.467 3.71329 568.407 3.70834L568.229 3.69479L568.052 3.6837L567.877 3.67494L567.703 3.66837L567.531 3.66385L567.277 3.6604H567.193C567.12 3.6604 567.047 3.66091 566.974 3.66195L566.757 3.66662C566.613 3.67078 566.47 3.67706 566.328 3.68553L566.117 3.69987C566.082 3.70253 566.047 3.70534 566.012 3.70828L565.804 3.72762C565.735 3.73464 565.666 3.74221 565.598 3.75037L565.395 3.77656C565.226 3.79983 565.06 3.82675 564.897 3.85744L564.703 3.89609L564.512 3.93842L564.323 3.98446C564.261 4.00043 564.199 4.01703 564.138 4.03427L563.955 4.08791C562.057 4.67132 560.69 5.89492 560.344 8.01809C560.202 8.89698 560.178 9.67013 560.383 10.6608C560.746 12.3728 562.225 13.565 563.879 14.5668L564.122 14.712C564.163 14.736 564.204 14.7599 564.245 14.7837L564.49 14.9254L564.861 15.1339L565.353 15.4057L566.08 15.8039L566.433 16.0004L566.776 16.1962L566.998 16.3268C567.035 16.3485 567.071 16.3703 567.107 16.3921L567.32 16.5231C568.228 17.092 568.94 17.6779 569.214 18.3649C569.394 18.8116 569.352 19.3785 569.267 19.7521L569.253 19.8125C569.232 19.8985 569.206 19.9845 569.174 20.0692L569.14 20.1534C568.912 20.6829 568.421 21.137 567.338 21.137C566.113 21.137 565.38 20.4235 565.38 19.3518L565.374 17.4651H560.112V18.9643C560.112 23.1726 563.285 24.5558 566.799 24.6597L567.019 24.6645L567.24 24.6661L567.458 24.6646C567.567 24.663 567.675 24.6603 567.782 24.6564L567.996 24.647C568.103 24.6414 568.208 24.6347 568.313 24.6267L568.522 24.6091L568.729 24.5881C568.797 24.5805 568.865 24.5724 568.933 24.5637L569.135 24.5359C569.202 24.526 569.268 24.5156 569.335 24.5046L569.531 24.4697C571.977 24.0119 573.799 22.7148 574.166 20.1778C574.217 19.8154 574.248 19.4801 574.266 19.1728L574.276 18.9721L574.281 18.7798C574.283 18.7171 574.284 18.6558 574.284 18.5959L574.283 18.4205L574.28 18.2536L574.274 18.0954L574.266 17.9458L574.256 17.8049L574.245 17.6728L574.225 17.4913L574.205 17.3299L574.177 17.1463L574.145 16.9684C573.806 15.2812 572.356 14.0809 570.724 13.0937L570.484 12.9507C570.444 12.9271 570.404 12.9037 570.364 12.8803L570.121 12.7415L569.877 12.6053L569.634 12.4715L569.39 12.3398L568.315 11.7693L567.971 11.5851L567.748 11.4634L567.53 11.3423L567.319 11.2218C567.284 11.2017 567.25 11.1816 567.216 11.1616L567.015 11.0414C566.127 10.5004 565.474 9.95923 565.324 9.33957Z" fill="#1428A0"/>
<path d="M749.659 21.412C748.63 21.4143 747.68 20.8628 747.171 19.9686C746.67 19.0798 746.7 17.9871 747.249 17.1272L752.372 9.08295C752.906 8.20277 753.872 7.67786 754.901 7.70895C755.929 7.73359 756.864 8.31006 757.348 9.21752C757.826 10.1205 757.766 11.2069 757.194 12.0545L752.075 20.0988C751.547 20.921 750.636 21.4164 749.659 21.412Z" fill="#F62B54"/>
<path d="M758.447 21.4117C757.413 21.4117 756.463 20.8592 755.963 19.9715C755.463 19.0851 755.493 17.9952 756.042 17.1377L761.154 9.1119C761.681 8.21908 762.649 7.68185 763.685 7.7086C764.727 7.73139 765.671 8.3142 766.149 9.22585C766.623 10.1375 766.554 11.2304 765.965 12.0759L760.853 20.1017C760.327 20.9203 759.42 21.4142 758.447 21.4117Z" fill="#FFCC00"/>
<path d="M767.035 21.4799C768.491 21.4799 769.672 20.3239 769.672 18.898C769.672 17.472 768.491 16.316 767.035 16.316C765.578 16.316 764.397 17.472 764.397 18.898C764.397 20.3239 765.578 21.4799 767.035 21.4799Z" fill="#00CA72"/>
<path d="M881.608 16.4646C882.404 16.4646 882.881 17.0311 882.881 17.9591V21.139H883.963V17.8863C883.963 16.3083 883.219 15.3934 881.821 15.3934C881.274 15.3934 880.406 15.5432 879.889 16.5493C879.643 15.9446 879.086 15.5236 878.437 15.4531C878.237 15.4164 878.033 15.4044 877.83 15.4173C877.385 15.4531 876.592 15.7298 876.296 16.3572V15.5139H875.213V21.139H876.296V18.1034C876.296 16.9226 877.069 16.4646 877.843 16.4646C878.568 16.4646 879.044 17.0192 879.044 17.9471V21.139H880.121V18.1034C880.121 17.1635 880.685 16.4537 881.608 16.4646ZM871.238 20.1991C871.732 20.21 872.21 20.0125 872.556 19.6543C872.904 19.2962 873.088 18.8089 873.07 18.3085C873.07 17.1755 872.236 16.4646 871.238 16.4646C870.238 16.4646 869.406 17.1755 869.406 18.3085C869.386 18.8078 869.571 19.294 869.916 19.6511C870.261 20.0092 870.736 20.2078 871.229 20.1991H871.238ZM871.238 21.254C869.655 21.254 868.334 20.0852 868.334 18.302C868.334 16.5189 869.655 15.3869 871.238 15.3869C872.82 15.3869 874.152 16.5189 874.152 18.302C874.152 20.0852 872.812 21.2595 871.23 21.2595L871.238 21.254ZM862.761 18.302L862.75 18.3085C862.75 16.5254 864.106 15.3934 865.699 15.3869C866.509 15.3712 867.287 15.6994 867.841 16.2899L867.02 16.9888C866.668 16.6432 866.193 16.4525 865.699 16.4592C864.701 16.4592 863.833 17.17 863.833 18.302C863.833 19.0672 864.287 19.7563 864.985 20.0494C865.683 20.3424 866.486 20.1796 867.02 19.6391L867.852 20.3381C867.297 20.9346 866.514 21.2676 865.699 21.254C864.118 21.254 862.761 20.0852 862.761 18.302ZM859.296 20.0591C859.294 19.8605 859.37 19.6691 859.509 19.527C859.648 19.385 859.838 19.3039 860.036 19.3016C860.235 19.3039 860.424 19.385 860.563 19.527C860.702 19.6691 860.779 19.8605 860.776 20.0591C860.756 20.4545 860.432 20.7659 860.036 20.77C859.64 20.7659 859.316 20.4545 859.296 20.0591Z" fill="#333333"/>
<path d="M862.257 8.36339H858.403L855.702 15.3278L853.014 8.36339H849.161L853.846 19.3684L850.932 26.6443H854.757L862.257 8.36339ZM838.819 14.4845C838.819 16.2427 840.355 17.3996 841.865 17.3996C843.349 17.3996 844.806 16.323 844.806 14.4834C844.806 12.6438 843.349 11.5661 841.865 11.5661C840.355 11.5661 838.819 12.7241 838.819 14.4834V14.4845ZM844.806 20.6295V19.2371C844.025 20.4201 842.202 20.8672 841.266 20.8672C838.169 20.8672 835.07 18.4253 835.07 14.4834C835.07 10.5427 838.168 8.10075 841.266 8.10075C842.046 8.10075 843.87 8.36122 844.806 9.72871V8.36773H848.399V20.6317L844.806 20.6306V20.6295ZM834.048 20.6295H830.455V19.1057C829.855 20.2345 828.4 20.8922 826.889 20.8922C823.764 20.8922 821.004 18.397 821.004 14.5334C821.004 10.597 823.764 8.09858 826.889 8.09858C828.398 8.09858 829.857 8.72805 830.455 9.85786V1.68225H834.048V20.6295ZM830.377 14.4563C830.377 12.6178 829.05 11.5401 827.566 11.5401C826.029 11.5401 824.753 12.6959 824.753 14.4563C824.753 16.2731 826.029 17.4235 827.565 17.4235C829.077 17.4257 830.377 16.2167 830.377 14.4563ZM812.122 14.1394C812.122 12.2748 813.086 11.6443 814.361 11.6443C815.584 11.6443 816.47 12.4582 816.47 14.0862V20.6273H820.088V13.2994C820.088 9.80685 818.369 8.09858 815.635 8.09858C814.204 8.09858 812.772 8.91256 812.121 10.1476V8.36339H808.505V20.6273H812.122V14.1394ZM801.158 20.8379C797.721 20.8379 794.855 18.3167 794.855 14.4552C794.855 10.5915 797.718 8.09532 801.158 8.09532C804.597 8.09532 807.485 10.5915 807.485 14.4552C807.485 18.3189 804.594 20.839 801.158 20.839V20.8379ZM801.158 17.2672C802.666 17.2672 803.917 16.1624 803.917 14.4563C803.917 12.8012 802.667 11.6714 801.158 11.6714C800.423 11.6599 799.716 11.9507 799.202 12.4756C798.685 13.0032 798.404 13.7179 798.424 14.4563C798.425 16.1646 799.674 17.2672 801.158 17.2672ZM788.368 11.6454C789.435 11.6454 790.373 12.4865 790.373 14.0873V20.6295H793.965V13.664C793.965 9.96096 792.165 8.09641 789.279 8.09641C788.421 8.09641 786.807 8.35688 785.634 10.2757C784.957 8.85721 783.656 8.12137 781.733 8.12137C780.369 8.11443 779.127 8.90552 778.557 10.1444V8.36448H774.937V20.6284H778.554V14.1394C778.554 12.2748 779.57 11.6443 780.663 11.6443C781.704 11.6443 782.64 12.4582 782.667 14.0081V20.6284H786.286V14.1394C786.286 12.3562 787.223 11.6464 788.368 11.6464V11.6454Z" fill="#333333"/>
<path d="M958.265 15.1637L958.283 15.1652L960.179 15.3633C960.312 15.3777 960.434 15.4426 960.521 15.5442L960.535 15.5614L960.517 15.5704C960.605 15.6822 960.644 15.8253 960.625 15.9666C960.211 19.2594 958.65 22.3011 956.217 24.5578C953.692 26.8994 950.376 28.2005 946.932 28.2005C945.26 28.2032 943.601 27.8953 942.042 27.2926L941.957 27.2594C941.829 27.2122 941.726 27.1152 941.672 26.9911L941.664 26.9713C941.611 26.8477 941.608 26.7087 941.655 26.5834L942.403 24.7579C942.505 24.4998 942.792 24.3698 943.052 24.4613L943.069 24.4677C946.893 25.9445 951.225 25.1127 954.231 22.3245C956.144 20.5665 957.378 18.1915 957.716 15.6154C957.752 15.3494 957.983 15.1559 958.247 15.1629L958.265 15.1637ZM1003.04 7.41604C1004.65 7.41604 1005.92 7.9092 1006.72 8.85632L1006.75 8.88842V8.08693C1006.76 7.86322 1006.93 7.68242 1007.16 7.66058L1007.17 7.65916H1009.33C1009.55 7.6745 1009.73 7.84916 1009.75 8.06901L1009.75 8.08693V20.0596C1009.82 21.7479 1009.3 23.4079 1008.28 24.7559C1007.12 26.1698 1005.35 26.8857 1003.04 26.8857C999.812 26.8857 997.268 24.846 996.849 21.9327C996.828 21.7224 996.956 21.5268 997.156 21.4609L997.173 21.4554L999.281 20.9601C999.291 20.9577 999.303 20.9556 999.314 20.9539C999.545 20.92 999.76 21.0801 999.794 21.3114C999.986 22.9455 1001.39 24.1647 1003.04 24.1255C1005.53 24.1255 1006.7 22.859 1006.72 20.2122L1006.72 20.1316V19.0825C1005.79 20.1301 1004.44 20.7091 1003.04 20.6629C999.452 20.6629 996.854 17.8803 996.854 14.053C996.821 12.331 997.427 10.6578 998.556 9.35666C999.702 8.09744 1001.33 7.39079 1003.04 7.41604ZM938.125 21.9777L938.152 21.9775L938.179 21.9777C939.039 21.9876 939.732 22.6832 939.741 23.5404L939.741 23.5672C939.741 23.5761 939.741 23.5851 939.741 23.594C939.726 24.4717 939.003 25.1711 938.125 25.1562C937.247 25.1412 936.548 24.4177 936.563 23.54C936.577 22.6802 937.272 21.9914 938.125 21.9777ZM1040.37 7.24945L1040.48 7.25027C1044.33 7.30348 1046.72 9.98542 1046.72 14.2781C1046.72 14.5052 1046.71 14.7322 1046.68 14.958C1046.67 15.1657 1046.5 15.3259 1046.29 15.3357L1046.27 15.3362H1037.11C1037.17 17.2598 1038.76 18.7817 1040.68 18.7538C1042.17 18.8475 1043.53 17.8991 1043.96 16.4665C1044.04 16.2608 1044.26 16.1502 1044.47 16.2092L1044.49 16.2143L1046.32 16.8582C1046.42 16.8907 1046.5 16.9623 1046.55 17.0564L1046.55 17.0743C1046.6 17.1735 1046.61 17.2887 1046.58 17.394C1045.73 19.908 1043.34 21.5715 1040.68 21.4915C1038.94 21.5088 1037.27 20.8294 1036.04 19.6048C1034.69 18.1872 1033.97 16.2865 1034.04 14.3322C1034.04 9.94138 1037.2 7.30259 1040.28 7.25025L1040.37 7.24945ZM988.546 7.24946H988.551C992.472 7.24946 994.908 9.94206 994.908 14.2781C994.908 14.5052 994.896 14.7322 994.872 14.958C994.854 15.1668 994.683 15.3281 994.475 15.3359L994.458 15.3362H985.3C985.356 17.2651 986.954 18.7892 988.884 18.7538C990.376 18.8492 991.736 17.9001 992.162 16.4665C992.238 16.2591 992.461 16.1477 992.672 16.209L992.689 16.2143L994.517 16.8582C994.624 16.8927 994.71 16.9714 994.755 17.0743C994.798 17.1766 994.798 17.2917 994.755 17.394C993.907 19.9064 991.516 21.5695 988.866 21.4915C987.124 21.5112 985.447 20.8316 984.21 19.6048C982.864 18.1861 982.146 16.2862 982.215 14.3322C982.215 9.89703 985.435 7.24946 988.546 7.24946ZM974.678 7.2449C976.438 7.2449 977.861 7.67268 978.915 8.51463C979.627 9.08242 980.155 9.84861 980.432 10.7165L980.433 10.72C980.469 10.8696 980.381 11.0203 980.235 11.0637L980.221 11.0677L978.037 11.7881C977.94 11.8265 977.832 11.8265 977.735 11.7881C977.652 11.7495 977.59 11.6774 977.564 11.5901L977.552 11.5471C977.353 10.836 976.703 9.69438 974.678 9.69438C973.237 9.69438 972.372 10.5229 972.372 11.3244L972.373 11.3561C972.384 11.8773 972.667 12.5315 973.91 12.7802L973.948 12.7877L976.353 13.238C979.01 13.7729 980.541 15.2169 980.571 17.2293L980.572 17.2904L980.563 17.2545L980.562 17.3155C980.524 19.3328 978.572 21.4554 974.979 21.4554C970.769 21.4554 969.117 19.0735 968.811 17.6687C968.791 17.5217 968.88 17.3829 969.021 17.3397L969.036 17.3354L971.287 16.633C971.327 16.6265 971.369 16.6265 971.409 16.633C971.466 16.632 971.523 16.6442 971.574 16.6684L971.593 16.6781C971.676 16.7177 971.737 16.7919 971.76 16.8806C972.044 18.2315 973.264 19.0375 975.02 19.0375C976.654 19.0375 977.397 18.182 977.397 17.4075C977.397 16.6416 976.75 16.0738 975.634 15.8393L975.596 15.8316L973.07 15.3408C970.715 14.895 969.248 13.4316 969.248 11.527C969.248 9.20807 971.737 7.2449 974.678 7.2449ZM1065.49 3.49419H1067.46C1067.69 3.50812 1067.87 3.69642 1067.88 3.92706L1067.88 3.94443V7.64117H1070.25C1070.48 7.65736 1070.66 7.84482 1070.67 8.07373L1070.67 8.09141V10.0546L1070.67 10.0717C1070.66 10.2918 1070.48 10.4706 1070.26 10.4818L1070.25 10.4824H1067.88V17.0518C1067.88 18.1414 1068.31 18.5917 1069.42 18.5917C1069.65 18.5878 1069.87 18.5707 1070.1 18.5406L1070.18 18.5286C1070.3 18.5079 1070.43 18.5425 1070.52 18.6232C1070.61 18.7021 1070.66 18.8105 1070.67 18.9258L1070.67 18.9475V20.798C1070.67 20.9866 1070.55 21.1537 1070.36 21.2078C1069.85 21.353 1069.31 21.4258 1068.77 21.4245L1068.7 21.4239C1066.35 21.4239 1064.88 19.9278 1064.85 17.5081L1064.85 17.4345V10.5094H1062.8C1062.58 10.4962 1062.4 10.321 1062.38 10.0997L1062.38 10.0816V8.10941C1062.38 7.87674 1062.56 7.6831 1062.79 7.66053L1062.8 7.65916L1063.36 7.65909L1063.41 7.65805C1064.06 7.63958 1065.04 7.37899 1065.06 5.94378L1065.07 5.89856V3.94443C1065.06 3.71176 1065.24 3.51813 1065.47 3.49556L1065.49 3.49419ZM1027.24 7.24746L1027.3 7.24946H1027.29C1029.61 7.24946 1031.95 8.86458 1032 12.392L1032 12.4995V20.8386C1031.99 21.0623 1031.81 21.243 1031.59 21.2649L1031.57 21.2663H1029.42C1029.19 21.2531 1029.01 21.0779 1028.99 20.8566L1028.99 20.8386V12.7697L1028.99 12.7076C1028.98 11.6795 1028.63 10.0276 1026.51 10.0276C1024.95 10.0276 1023.83 11.2456 1023.81 13.0175L1023.81 13.0714V20.8386C1023.8 21.0623 1023.63 21.243 1023.41 21.2649L1023.39 21.2663H1021.2C1020.98 21.2531 1020.8 21.0779 1020.78 20.8566L1020.78 20.8386V12.7697L1020.78 12.7076C1020.77 11.6795 1020.42 10.0276 1018.3 10.0276C1016.67 10.0276 1015.57 11.2367 1015.55 13.0435L1015.55 13.0984V20.8386C1015.54 21.0623 1015.36 21.243 1015.14 21.2649L1015.13 21.2663H1012.97C1012.75 21.251 1012.57 21.0763 1012.55 20.8565L1012.55 20.8386V8.0599C1012.56 7.83777 1012.73 7.65759 1012.95 7.63372L1012.97 7.63213H1015.04C1015.27 7.64529 1015.45 7.82055 1015.47 8.04186L1015.47 8.0599V8.82988C1016.4 7.80613 1017.73 7.23092 1019.11 7.24946C1020.72 7.20243 1022.22 8.05087 1023 9.45119C1023.93 8.02481 1025.54 7.19034 1027.24 7.24746ZM1059.54 8.83884C1060.37 9.92742 1060.79 11.2663 1060.75 12.631L1060.75 12.6886V20.8386C1060.74 21.0607 1060.57 21.2409 1060.35 21.2648L1060.33 21.2663H1058.14C1057.92 21.2531 1057.74 21.0779 1057.72 20.8566L1057.72 20.8386V13.1254C1057.72 11.1082 1056.77 10.0816 1054.97 10.0816C1054.17 10.0559 1053.41 10.4103 1052.92 11.0362C1052.44 11.7232 1052.2 12.5431 1052.22 13.378L1052.22 13.4271V20.8386C1052.21 21.0623 1052.03 21.243 1051.81 21.2649L1051.8 21.2663H1049.62C1049.39 21.2531 1049.21 21.0779 1049.19 20.8566L1049.19 20.8386V8.05087C1049.2 7.82716 1049.38 7.64642 1049.6 7.62452L1049.62 7.62309H1051.75C1051.97 7.63843 1052.14 7.81317 1052.16 8.03295L1052.16 8.05087V8.95144C1053.08 7.84459 1054.45 7.21741 1055.88 7.24946C1057.28 7.18968 1058.63 7.77578 1059.54 8.83884ZM934.041 15.71H949.544C949.829 15.7124 950.059 15.9405 950.066 16.2232L950.066 16.2413V18.182C950.068 18.4669 949.844 18.7009 949.562 18.7128L949.544 18.7133H934.041C933.756 18.7109 933.526 18.4827 933.519 18.2001V18.182V16.2413V16.2232C933.526 15.9467 933.746 15.7224 934.022 15.7105L934.041 15.71ZM1003.41 10.1086C1001.28 10.1086 999.933 11.6216 999.933 14.053C999.933 16.4845 1001.27 17.9928 1003.41 17.9928C1005.45 17.9928 1006.83 16.4079 1006.83 14.053C1006.83 11.6935 1005.45 10.1086 1003.41 10.1086ZM985.395 12.7394L985.39 12.7877H991.797C991.641 11.076 990.435 10.0086 988.628 9.9874L988.573 9.98708C986.981 9.96119 985.625 11.1256 985.402 12.6918L985.395 12.7394ZM1037.23 12.7394L1037.22 12.7877H1043.63C1043.47 11.076 1042.27 10.0086 1040.46 9.9874L1040.4 9.98708C1038.81 9.96119 1037.46 11.1256 1037.23 12.6918L1037.23 12.7394ZM951.484 0.900594C951.619 0.949017 951.727 1.04972 951.786 1.17978C951.84 1.31107 951.84 1.45827 951.786 1.58948L951.111 3.39062C951.017 3.65768 950.725 3.79862 950.458 3.70579C946.919 2.47105 942.993 3.1726 940.102 5.55636C938.299 7.0648 937.02 9.10404 936.445 11.3828C936.386 11.613 936.179 11.7739 935.941 11.7746H935.824L933.969 11.3289C933.831 11.2963 933.712 11.2084 933.64 11.0857H933.631C933.556 10.963 933.535 10.8148 933.573 10.676C934.309 7.75886 935.958 5.15299 938.278 3.23748C941.967 0.200125 946.977 -0.686313 951.484 0.900594ZM944.618 8.68129H960.121C960.398 8.68356 960.625 8.9009 960.642 9.17612L960.643 9.19456V11.1353C960.645 11.4202 960.421 11.6542 960.139 11.6661L960.121 11.6666H944.618C944.335 11.6617 944.107 11.4345 944.1 11.1536L944.1 11.1353V9.21255C944.097 8.92948 944.319 8.69635 944.599 8.68192L944.618 8.68129ZM955.38 2.76017L955.406 2.75996L955.433 2.7602C956.294 2.77006 956.986 3.46572 956.996 4.32282L956.996 4.34965C956.996 4.35861 956.996 4.36757 956.995 4.37645C956.981 5.25416 956.257 5.95355 955.379 5.93865C954.501 5.92374 953.802 5.2001 953.817 4.32247C953.832 3.4626 954.526 2.77391 955.38 2.76017Z" fill="#4FB58B"/>
</svg>
