<svg width="138" height="19" viewBox="0 0 138 19" fill="none" xmlns="http://www.w3.org/2000/svg">
<path d="M59.9127 11.8481H68.9752L64.1833 4.13862L55.3885 18.0777H51.3858L62.0832 1.3339C62.5483 0.657377 63.3235 0.248657 64.1833 0.248657C65.0148 0.248657 65.7899 0.64329 66.241 1.30571L76.9806 18.0777H72.978L71.0893 14.9629H61.914L59.9127 11.8481ZM101.49 14.9629V0.417786H98.0936V16.3864C98.0936 16.8233 98.2627 17.2461 98.5869 17.5703C98.911 17.8945 99.3479 18.0777 99.8271 18.0777H115.317L117.318 14.9629H101.49ZM45.2971 12.3555C48.5952 12.3555 51.2731 9.6917 51.2731 6.39367C51.2731 3.09566 48.5952 0.417786 45.2971 0.417786H30.4377V18.0777H33.833V3.53258H45.0716C46.6502 3.53258 47.9187 4.81513 47.9187 6.39367C47.9187 7.97221 46.6502 9.25478 45.0716 9.25478L35.4961 9.24068L45.6354 18.0777H50.5684L43.7468 12.3555H45.2971ZM9.53627 18.0777C4.66107 18.0777 0.704834 14.1313 0.704834 9.25478C0.704834 4.37822 4.66107 0.417786 9.53627 0.417786H19.8009C24.6775 0.417786 28.6309 4.37822 28.6309 9.25478C28.6309 14.1313 24.6775 18.0777 19.8009 18.0777H9.53627ZM19.5726 14.9629C22.7311 14.9629 25.2892 12.4118 25.2892 9.25478C25.2892 6.0977 22.7311 3.53258 19.5726 3.53258H9.76313C6.60606 3.53258 4.04651 6.0977 4.04651 9.25478C4.04651 12.4118 6.60606 14.9629 9.76313 14.9629H19.5726ZM84.0699 18.0777C79.1934 18.0777 75.233 14.1313 75.233 9.25478C75.233 4.37822 79.1934 0.417786 84.0699 0.417786H96.2613L94.2741 3.53258H84.2955C81.1384 3.53258 78.5733 6.0977 78.5733 9.25478C78.5733 12.4118 81.1384 14.9629 84.2955 14.9629H96.5432L94.5419 18.0777H84.0699ZM125.605 14.9629C122.998 14.9629 120.785 13.2152 120.108 10.8051H134.625L136.627 7.69033H120.108C120.785 5.29434 122.998 3.53258 125.605 3.53258H135.57L137.585 0.417786H125.38C120.503 0.417786 116.543 4.37822 116.543 9.25478C116.543 14.1313 120.503 18.0777 125.38 18.0777H135.852L137.853 14.9629H125.605Z" fill="#EA1B22"/>
</svg>
