<svg width="138" height="26" viewBox="0 0 138 26" fill="none" xmlns="http://www.w3.org/2000/svg">
<path d="M3.65907 20.412C2.63036 20.4143 1.68003 19.8628 1.17155 18.9686C0.670393 18.0798 0.700445 16.9871 1.24969 16.1272L6.37233 8.08295C6.90611 7.20277 7.87218 6.67786 8.90109 6.70895C9.92926 6.73359 10.8645 7.31006 11.3485 8.21752C11.826 9.1205 11.7663 10.2069 11.1943 11.0545L6.07496 19.0988C5.54733 19.921 4.63599 20.4164 3.65907 20.412Z" fill="#F62B54"/>
<path d="M12.4469 20.4117C11.4137 20.4117 10.4629 19.8592 9.96368 18.9715C9.46364 18.0851 9.4937 16.9952 10.0418 16.1377L15.1547 8.1119C15.6808 7.21908 16.6497 6.68185 17.6856 6.7086C18.7275 6.73139 19.6717 7.3142 20.1493 8.22585C20.6236 9.13751 20.5541 10.2304 19.9648 11.0759L14.853 19.1017C14.327 19.9203 13.4199 20.4142 12.4469 20.4117Z" fill="#FFCC00"/>
<path d="M21.035 20.4799C22.4915 20.4799 23.6723 19.3239 23.6723 17.898C23.6723 16.472 22.4915 15.316 21.035 15.316C19.5785 15.316 18.3977 16.472 18.3977 17.898C18.3977 19.3239 19.5785 20.4799 21.035 20.4799Z" fill="#00CA72"/>
<path d="M135.608 15.4646C136.405 15.4646 136.881 16.0311 136.881 16.9591V20.139H137.963V16.8863C137.963 15.3083 137.22 14.3934 135.822 14.3934C135.275 14.3934 134.406 14.5432 133.889 15.5493C133.644 14.9446 133.086 14.5236 132.438 14.4531C132.237 14.4164 132.033 14.4044 131.83 14.4173C131.385 14.4531 130.593 14.7298 130.296 15.3572V14.5139H129.213V20.139H130.296V17.1034C130.296 15.9226 131.069 15.4646 131.843 15.4646C132.568 15.4646 133.044 16.0192 133.044 16.9471V20.139H134.121V17.1034C134.121 16.1635 134.685 15.4537 135.608 15.4646ZM125.238 19.1991C125.733 19.21 126.21 19.0125 126.556 18.6543C126.904 18.2962 127.088 17.8089 127.07 17.3085C127.07 16.1755 126.236 15.4646 125.238 15.4646C124.238 15.4646 123.406 16.1755 123.406 17.3085C123.386 17.8078 123.571 18.294 123.916 18.6511C124.261 19.0092 124.736 19.2078 125.229 19.1991H125.238ZM125.238 20.254C123.655 20.254 122.335 19.0852 122.335 17.302C122.335 15.5189 123.655 14.3869 125.238 14.3869C126.82 14.3869 128.152 15.5189 128.152 17.302C128.152 19.0852 126.813 20.2595 125.23 20.2595L125.238 20.254ZM116.762 17.302L116.751 17.3085C116.751 15.5254 118.106 14.3934 119.699 14.3869C120.509 14.3712 121.287 14.6994 121.841 15.2899L121.02 15.9888C120.668 15.6432 120.193 15.4525 119.699 15.4592C118.701 15.4592 117.833 16.17 117.833 17.302C117.833 18.0672 118.288 18.7563 118.985 19.0494C119.683 19.3424 120.486 19.1796 121.02 18.6391L121.853 19.3381C121.297 19.9346 120.515 20.2676 119.699 20.254C118.118 20.254 116.762 19.0852 116.762 17.302ZM113.296 19.0591C113.294 18.8605 113.371 18.6691 113.509 18.527C113.648 18.385 113.838 18.3039 114.036 18.3016C114.235 18.3039 114.425 18.385 114.563 18.527C114.702 18.6691 114.779 18.8605 114.777 19.0591C114.756 19.4545 114.432 19.7659 114.036 19.77C113.641 19.7659 113.316 19.4545 113.296 19.0591Z" fill="#333333"/>
<path d="M116.257 7.36339H112.403L109.702 14.3278L107.015 7.36339H103.161L107.846 18.3684L104.932 25.6443H108.758L116.257 7.36339ZM92.8189 13.4845C92.8189 15.2427 94.3557 16.3996 95.8654 16.3996C97.349 16.3996 98.8066 15.323 98.8066 13.4834C98.8066 11.6438 97.349 10.5661 95.8654 10.5661C94.3557 10.5661 92.8189 11.7241 92.8189 13.4834V13.4845ZM98.8066 19.6295V18.2371C98.0251 19.4201 96.2018 19.8672 95.2663 19.8672C92.1688 19.8672 89.0703 17.4253 89.0703 13.4834C89.0703 9.54269 92.1678 7.10075 95.2663 7.10075C96.0466 7.10075 97.8699 7.36122 98.8066 8.72871V7.36773H102.399V19.6317L98.8066 19.6306V19.6295ZM88.0479 19.6295H84.4556V18.1057C83.8554 19.2345 82.4 19.8922 80.8893 19.8922C77.7647 19.8922 75.0047 17.397 75.0047 13.5334C75.0047 9.59695 77.7647 7.09858 80.8893 7.09858C82.3978 7.09858 83.8576 7.72805 84.4556 8.85786V0.682251H88.0479V19.6295ZM84.3774 13.4563C84.3774 11.6178 83.0501 10.5401 81.5665 10.5401C80.0297 10.5401 78.7534 11.6959 78.7534 13.4563C78.7534 15.2731 80.0297 16.4235 81.5654 16.4235C83.0772 16.4257 84.3774 15.2167 84.3774 13.4563ZM66.1226 13.1394C66.1226 11.2748 67.0863 10.6443 68.3616 10.6443C69.5847 10.6443 70.4703 11.4582 70.4703 13.0862V19.6273H74.0887V12.2994C74.0887 8.80685 72.3696 7.09858 69.6357 7.09858C68.2042 7.09858 66.7727 7.91256 66.1215 9.14763V7.36339H62.5053V19.6273H66.1226V13.1394ZM55.1578 19.8379C51.7217 19.8379 48.8554 17.3167 48.8554 13.4552C48.8554 9.59152 51.7184 7.09532 55.1578 7.09532C58.5971 7.09532 61.4851 9.59152 61.4851 13.4552C61.4851 17.3189 58.5938 19.839 55.1578 19.839V19.8379ZM55.1578 16.2672C56.6663 16.2672 57.9177 15.1624 57.9177 13.4563C57.9177 11.8012 56.6674 10.6714 55.1578 10.6714C54.4231 10.6599 53.7161 10.9507 53.202 11.4756C52.6851 12.0032 52.4044 12.7179 52.4239 13.4563C52.4249 15.1646 53.6741 16.2672 55.1578 16.2672ZM42.3685 10.6454C43.4354 10.6454 44.3731 11.4865 44.3731 13.0873V19.6295H47.9654V12.664C47.9654 8.96096 46.1649 7.09641 43.2791 7.09641C42.4217 7.09641 40.8068 7.35688 39.6346 9.2757C38.9574 7.85721 37.6561 7.12137 35.7329 7.12137C34.3692 7.11443 33.1274 7.90552 32.5573 9.14438V7.36448H28.9368V19.6284H32.5541V13.1394C32.5541 11.2748 33.5699 10.6443 34.6628 10.6443C35.7047 10.6443 36.6403 11.4582 36.6674 13.0081V19.6284H40.2858V13.1394C40.2858 11.3562 41.2235 10.6464 42.3685 10.6464V10.6454Z" fill="#333333"/>
</svg>
