<svg width="121" height="104" viewBox="0 0 121 104" fill="none" xmlns="http://www.w3.org/2000/svg">
<path fill-rule="evenodd" clip-rule="evenodd" d="M108.949 82.4172C108.179 83.0207 107.817 83.895 107.662 84.8779C107.577 85.4201 107.082 85.4943 106.71 85.5895C106.387 85.6724 106.09 85.6831 105.829 85.9491C105.722 86.0592 105.385 86.0833 105.244 85.9971C104.792 85.7217 104.308 85.5204 103.891 85.153C102.423 83.8607 101.346 82.2622 100.338 80.6315C99.3103 78.9677 98.2342 77.3217 97.4468 75.517C97.202 74.9553 97.1921 74.9599 97.8084 74.5237C98.3096 75.4768 98.7768 76.4444 99.3178 77.3689C99.7469 78.1024 100.266 78.7825 100.789 79.5501C100.912 79.2411 100.909 79.0431 100.718 78.7676C99.6781 77.2657 98.6911 75.7299 97.9082 73.9712C98.0333 73.8896 98.1845 73.7906 98.3349 73.6928C98.3696 73.7227 98.4471 73.7898 98.5796 73.9045V73.2782C98.9512 73.2041 99.2879 73.1374 99.7262 73.0504C100.068 73.2099 100.23 73.8146 100.793 73.8896C100.774 74.5014 101.309 74.8062 101.578 75.2531C101.911 75.8073 102.363 76.2899 102.683 76.6995C103.044 76.6515 103.314 76.6009 103.587 76.5819C104.544 76.5148 104.521 76.545 105.117 77.0707C105.779 77.6547 106.232 78.4719 107.086 78.843C107.141 78.8666 107.202 78.9503 107.205 79.0087C107.232 79.6234 107.576 79.8466 108.153 79.9957C108.637 80.1212 108.775 80.6315 108.798 81.1336C108.815 81.5183 108.886 81.9007 108.949 82.4172Z" fill="black"/>
<path fill-rule="evenodd" clip-rule="evenodd" d="M23.5339 11.025C24.219 11.368 24.219 11.368 24.5877 10.6501C25.0561 10.4894 25.6223 10.8129 26.0461 10.3826C26.5228 10.5014 26.9933 10.663 27.4771 10.7297C28.2583 10.8369 28.6617 11.4413 29.1029 11.9499C29.4023 12.2953 29.7159 12.642 29.9897 13.0173C30.3099 13.4564 30.6926 13.849 31.014 14.2868C31.3052 14.6836 31.5541 15.1123 31.8126 15.5323C31.8842 15.6491 31.9762 15.7912 31.9658 15.9138C31.9381 16.2402 32.0512 16.4601 32.2831 16.6942C32.7292 17.144 32.6944 17.8042 32.8493 18.3659C32.993 18.8894 32.9106 19.4863 32.8642 20.0459C32.8468 20.2596 32.8187 20.7156 32.3481 20.3793C32.315 20.3553 32.1506 20.5305 32.0375 20.5968C31.9182 20.6664 31.7144 20.7993 31.6722 20.7625C31.1759 20.3267 31.055 20.6382 30.828 21.069C30.4942 21.7031 30.2904 21.6563 29.3941 21.4964C28.8485 21.3987 28.2703 21.3817 27.951 20.9082C27.0874 19.6284 26.2026 18.3572 26.0829 16.7211C26.0353 16.0654 25.8522 15.3811 25.3113 14.9098C24.8453 14.5035 24.5359 13.9227 23.8997 13.6962C23.7079 13.6278 23.5675 13.3992 23.4184 13.2306C23.1015 12.8711 22.9313 12.4714 22.923 11.9656C22.9143 11.4404 23.3293 11.3228 23.5339 11.025Z" fill="black"/>
<path fill-rule="evenodd" clip-rule="evenodd" d="M96.7479 53.8041C96.1887 53.245 95.7194 52.6974 95.1723 52.2434C93.6028 50.9412 92.8577 49.0988 91.9191 47.384C91.4975 46.614 91.618 45.7492 91.6362 44.9162C91.6395 44.7717 91.8392 44.6312 91.956 44.4796C92.1155 44.7953 92.265 45.091 92.4833 45.5226V43.9805C92.8117 43.8178 93.136 43.7291 93.3572 43.5278C93.6318 43.278 93.9421 43.3273 94.1939 43.3907C94.4872 43.4644 94.7373 43.7092 95.0323 43.8964C94.8595 44.7058 95.1781 45.3834 95.5728 46.0896C95.9261 45.994 96.3432 46.245 96.6969 45.8821C96.7719 45.8051 97.0179 45.7989 97.124 45.8627C97.9905 46.3841 99.0537 46.6608 99.492 47.7311C99.5707 47.9241 99.6581 48.1735 99.8163 48.2592C100.055 48.3885 99.8407 48.7919 100.25 48.8076C100.588 48.8205 100.372 49.1643 100.433 49.3515C100.508 49.5834 100.61 49.8104 100.65 50.0482C100.688 50.266 100.658 50.4955 100.658 50.7217C99.791 51.4656 99.2335 52.4133 98.806 53.4691C98.1123 53.5817 97.4081 53.6964 96.7479 53.8041Z" fill="black"/>
<path fill-rule="evenodd" clip-rule="evenodd" d="M2.66859 1.14011C2.87444 0.859696 3.03474 0.626086 3.21243 0.405731C3.27746 0.32579 3.3777 0.269459 3.47089 0.21727C3.7364 0.0685714 3.9261 0.488986 4.22308 0.305909C4.45586 0.162595 4.72841 0.0337785 4.99391 0.00809805C5.21427 -0.0130262 5.54107 0.252477 5.65953 0.167151C5.92338 -0.022967 6.08119 -0.0801268 6.31066 0.177092C6.35332 0.224311 6.50947 0.18869 6.60681 0.16508C7.32669 -0.00847 7.32628 -0.010541 7.71149 0.689045C7.76409 0.537447 7.80965 0.40656 7.89249 0.167566C8.0064 0.475731 8.11823 0.694844 8.16545 0.926796C8.22344 1.21011 8.23752 1.50378 8.25078 1.79372C8.26444 2.08532 8.25367 2.37816 8.41728 2.67845L8.52663 1.59242C8.56515 1.59076 8.60409 1.5891 8.64302 1.58786C8.66415 1.78005 8.70143 1.97224 8.70267 2.16484C8.70888 3.14153 8.66291 4.1207 8.71841 5.09407C8.7677 5.95271 8.62066 6.73017 8.13563 7.44011C7.95379 7.26615 7.78149 7.0023 7.57439 7.42313C7.34782 7.88289 6.98498 7.8481 6.5161 7.63727C6.43823 8.13721 6.40302 8.72662 5.57504 8.53816V7.28603C5.51995 7.27526 5.46444 7.26407 5.40936 7.25289C5.27805 7.67993 5.14717 8.10697 5.01214 8.54644C4.64225 8.29875 4.33906 8.03532 4.39912 7.51425C4.41569 7.36804 4.24504 7.20816 4.18995 7.04496C3.95178 6.33502 3.95551 6.33336 3.3661 6.31638C3.25344 6.31307 3.14078 6.31597 3.02811 6.31597H2.7187C2.43291 6.03017 2.17527 5.75555 1.89983 5.50041C1.31291 4.95822 1.1261 4.24041 1.03208 3.49443C0.985687 3.12455 1.06563 2.7381 1.01302 2.36987C0.955036 1.96396 1.16421 1.66407 1.34894 1.37828C1.71717 0.808749 1.91805 0.792181 2.66859 1.14011Z" fill="black"/>
<path fill-rule="evenodd" clip-rule="evenodd" d="M68.5434 10.0805C68.0617 10.4077 67.5978 10.7357 67.1144 11.031C67.0676 11.0596 66.8994 10.8894 66.718 10.7626C66.607 10.9619 66.5316 11.1445 66.414 11.2937C66.2756 11.4697 66.098 11.6147 65.941 11.7766C65.6229 12.1042 65.3164 12.4692 64.8462 11.9713C64.8102 11.9336 64.7009 11.9709 64.6267 11.963C64.0986 11.9058 63.5954 12.0376 63.0639 11.6126C62.6361 11.2705 62.0914 11.0339 61.6892 10.6139C61.3123 10.2196 60.9221 9.84933 60.6591 9.34898C60.2556 8.58064 59.8572 7.82099 60.0009 6.91927C60.037 6.69312 60.1923 6.48561 60.3327 6.18282C60.6168 6.41561 60.809 6.573 61.0335 6.75732C61.2174 6.1472 61.1797 5.43809 61.7451 4.90046C61.9667 5.06614 62.1809 5.22602 62.448 5.42566V4.60182C63.1903 4.47507 63.8646 4.21993 64.6085 4.26466C65.0351 4.29034 65.4038 4.42537 65.6738 4.68424C66.0209 5.01643 66.4459 5.25419 66.7292 5.67998C66.9852 6.06519 67.3352 6.38744 67.604 6.78424C68.0451 7.43661 68.1942 8.19916 68.5169 8.89336C68.671 9.2243 68.5434 9.68655 68.5434 10.0805Z" fill="black"/>
<path fill-rule="evenodd" clip-rule="evenodd" d="M20.7034 31.6755V34.0994C20.9283 33.4868 20.8894 32.868 20.9085 32.2525C20.9159 32.0048 20.7987 31.6966 21.099 31.5487C21.4092 31.3955 21.7369 31.2439 22.0715 31.1946C22.1867 31.1776 22.4058 31.4502 22.4712 31.6287C22.5417 31.8205 22.4874 32.0578 22.4874 32.2997C22.6746 32.2214 22.786 32.1307 22.8859 32.1419C23.0921 32.1651 23.3754 32.356 23.4811 32.279C24.068 31.847 24.7112 32.1307 25.318 32.0967C25.5927 32.0814 26.0081 32.2649 26.1398 32.4877C26.4629 33.0366 27.1149 33.2043 27.4566 33.85C27.4678 34.1259 27.5042 34.4668 27.7908 34.8338C28.1665 35.3147 28.4871 35.9119 28.3707 36.6157C28.3165 36.9429 28.3612 37.2863 28.3612 37.6851C27.5912 38.142 26.7901 38.586 26.0222 39.0814C25.2186 39.6 24.4876 39.2516 23.8037 38.8934C23.3046 38.6316 22.6349 38.509 22.4663 37.8119C21.3504 37.3099 21.152 36.134 20.5564 35.2455C20.1559 34.6482 20.1683 33.9532 20.0548 33.3211C19.9612 32.7988 20.3298 32.1937 20.4938 31.6254C20.5638 31.6419 20.6338 31.6589 20.7034 31.6755Z" fill="black"/>
<path fill-rule="evenodd" clip-rule="evenodd" d="M42.5604 43.8984C42.0849 43.4229 41.5808 42.9188 41.0134 42.3514C41.0134 41.9757 40.9744 41.5279 41.0333 41.0934C41.0556 40.9319 41.2888 40.7687 41.4624 40.6739C41.5282 40.6374 41.6976 40.7907 41.8211 40.8582C41.9851 40.5334 42.0812 40.094 42.6358 40.2008C42.7389 40.2211 42.8851 40.2274 42.9556 40.1706C43.2318 39.9469 43.5325 39.7187 43.8859 39.8169C44.5192 39.9933 45.225 40.0965 45.7187 40.5334C46.6946 41.3979 47.6224 42.3373 48.1082 43.5857C48.3977 44.33 48.6591 45.0988 48.7991 45.8808C48.86 46.2229 48.7676 46.6926 48.3779 46.9652C47.7363 47.4146 47.1187 47.9 46.463 48.3275C46.2398 48.4729 45.925 48.5735 45.6644 48.5507C44.023 48.4087 42.8533 47.6362 42.3682 45.7822C42.2974 45.5121 42.128 45.2309 42.1644 44.9782C42.2175 44.6125 42.4171 44.2675 42.5604 43.8984Z" fill="black"/>
<path fill-rule="evenodd" clip-rule="evenodd" d="M45.3768 84.7092C45.332 84.4827 45.2873 84.2565 45.2426 84.0299C45.2397 84.9288 44.2907 85.2651 44.084 86.0293C44.0103 86.3027 43.6061 86.4244 43.4387 86.2724C43.1658 86.0256 42.9798 86.2057 42.8257 86.306C42.4161 86.5727 42.0681 86.547 41.6498 86.3027C40.444 85.5977 39.2002 84.9499 38.4894 83.6576C37.6329 83.1941 37.3823 82.2526 36.85 81.5369C36.5911 81.1889 36.5087 80.7097 36.3281 80.2425C36.6429 79.784 37.1002 79.9053 37.6532 80.1812C37.5997 79.9207 37.6142 79.6808 37.5049 79.533C37.3537 79.3296 37.5152 79.2497 37.601 79.2136C37.9903 79.0508 38.3929 78.9315 38.7135 78.6242C38.7918 78.5488 39.0134 78.5786 39.1509 78.6201C39.3965 78.6946 39.6069 78.8516 39.8799 78.6296C39.9574 78.567 40.2092 78.6921 40.3674 78.7617C41.7272 79.359 42.9578 80.1079 43.763 81.4333C43.8716 81.6123 44.1159 81.802 44.2986 81.9722C44.8226 82.4589 44.9207 83.168 45.3262 83.6928C45.5955 84.042 45.5366 84.3485 45.3768 84.7092Z" fill="black"/>
<path fill-rule="evenodd" clip-rule="evenodd" d="M113.944 32.0438C113.974 31.8355 114.003 31.6267 114.036 31.3973C114.118 31.4569 114.191 31.4805 114.21 31.5265C114.5 32.2348 114.861 32.9136 115.031 33.6712C115.138 34.1476 115.274 34.6036 114.813 34.9747C114.499 35.2274 114.818 35.9531 114.111 35.9125C113.778 36.4472 113.245 36.3938 112.735 36.3573C112.619 36.7152 112.548 37.0639 112.397 37.375C112.228 37.7254 111.687 37.8244 111.106 37.6587C110.974 37.621 110.846 37.4922 110.725 37.503C109.784 37.585 109.786 37.592 109.39 36.8506C109.193 36.4807 108.954 36.1274 108.801 35.7402C108.615 35.268 108.325 34.9731 107.848 34.7693C107.14 34.4665 106.68 33.8526 106.558 33.1224C106.447 32.4613 106.757 31.8549 107.347 31.3786C107.64 31.7605 107.931 32.1412 108.34 32.6747C108.34 32.1287 108.334 31.7613 108.342 31.3944C108.349 31.0294 108.389 31.104 108.966 30.8439C109.379 30.6579 109.976 30.8832 110.214 30.3108C110.621 30.2951 111.029 30.2802 111.436 30.2644C112.189 30.2346 112.856 30.3166 113.207 31.1533C113.346 31.4847 113.68 31.7348 113.944 32.0438Z" fill="black"/>
<path fill-rule="evenodd" clip-rule="evenodd" d="M2.57857 37.5321C1.68721 37.339 1.37407 36.707 1.29289 36.1515C1.18892 35.4412 0.948272 34.7449 1.00585 33.9939C1.0804 33.0218 1.07502 32.0356 1.00212 31.0635C0.966911 30.5917 1.26969 30.2425 1.26265 29.8014C1.26099 29.6867 1.42046 29.4647 1.49585 29.4692C2.07738 29.5024 2.35366 28.8728 2.96336 28.869C3.36721 28.867 3.76898 28.4884 4.22212 28.2515C4.66863 28.698 5.61839 28.1458 5.9804 29.1304C5.74348 29.8221 6.33372 30.4297 6.53377 31.1384C6.56153 31.2374 6.66549 31.3257 6.66632 31.4193C6.67585 32.5355 6.67212 33.6514 6.67212 34.8638C6.49153 34.7035 6.41324 34.6343 6.21898 34.4616C6.27987 34.7238 6.26827 34.9247 6.35774 34.9926C6.45301 35.0655 6.65389 34.9847 6.78892 35.0299C6.85022 35.0502 6.88295 35.2121 6.88957 35.3124C6.89289 35.3583 6.79307 35.4598 6.75662 35.4524C6.48324 35.3989 6.2136 35.3244 5.91827 35.2506C5.71656 35.6872 5.50117 36.1532 5.34046 36.5015C5.03271 36.4787 4.8488 36.4647 4.66531 36.451C4.98715 36.7757 4.61727 36.8925 4.48348 37.0922C4.34721 37.2947 4.24738 37.5217 4.13928 37.7234C3.42851 37.6464 3.16342 37.1883 2.9733 36.5815C2.83869 36.9062 2.71733 37.1974 2.57857 37.5321Z" fill="black"/>
<path fill-rule="evenodd" clip-rule="evenodd" d="M85.7297 89.4789C85.1453 89.4623 84.5923 89.3045 84.3098 89.9523C83.8327 89.3235 83.7763 88.8774 84.2622 88.3779C84.5977 88.0333 84.8189 87.6029 85.2463 87.3051C85.6204 87.0442 85.7579 86.4672 86.0801 86.0998C86.3278 85.8173 86.6998 85.6434 87.0166 85.4218C87.1156 85.5183 87.2225 85.6235 87.3911 85.7887C87.2121 85.9159 87.0365 86.041 86.8605 86.1657C86.8799 86.2108 86.8998 86.256 86.9193 86.3011C87.1769 86.2605 87.4341 86.2199 87.7237 86.1744C87.8007 86.2899 87.8902 86.5865 88.082 86.6863C89.2339 87.2861 89.9691 88.2872 90.6691 89.3148C90.8989 89.652 90.9781 90.0881 91.1628 90.4613C91.6188 91.3838 91.7365 91.554 91.5977 92.3923C91.4975 92.9983 91.3869 93.6445 90.911 94.1382C90.7229 94.3329 90.5224 94.6141 90.5125 94.8635C90.4876 95.4931 90.1418 95.5937 89.6331 95.5614C89.4911 95.5523 89.3407 95.5705 89.2024 95.6078C88.3152 95.8464 88.2236 95.8215 87.7812 95.1414C87.126 94.1345 86.8128 92.983 86.4318 91.8638C86.1625 91.0731 85.9571 90.26 85.7297 89.4789Z" fill="black"/>
<path fill-rule="evenodd" clip-rule="evenodd" d="M71.3653 77.086C70.7378 76.7297 70.1024 76.4179 69.5909 75.9022C68.6378 74.9396 67.6147 74.0379 66.7354 73.0123C65.8109 71.9341 64.8321 70.8713 64.2742 69.6071C64.333 69.108 64.9833 69.6382 64.9957 69.0492C64.9994 68.881 65.4116 68.7187 65.6402 68.5592C66.2077 68.1632 66.5245 68.097 66.9379 68.5368C67.3459 68.9713 67.8177 69.1271 68.3516 69.2402C69.1762 69.415 69.7454 70.0483 70.4512 70.438C71.2062 70.8547 71.7443 71.5257 72.3577 72.1085C72.6754 72.41 73.0701 72.6416 73.3431 72.9754C73.6177 73.3113 73.87 73.7152 73.9673 74.1281C74.0261 74.3796 73.8372 74.759 73.6451 74.9831C73.4077 75.2593 73.2955 75.6582 72.88 75.792C72.6398 75.869 72.6738 76.1374 72.627 76.3586C72.5731 76.6125 72.5023 76.9215 72.0616 76.6026C71.7534 76.3802 71.4941 76.6958 71.3653 77.086Z" fill="black"/>
<path fill-rule="evenodd" clip-rule="evenodd" d="M116.842 70.5525C115.555 70.0224 115.001 69.0366 114.451 68.0785C113.968 67.2365 113.527 66.3596 113.168 65.4579C112.809 64.5574 112.184 63.7041 112.463 62.5709C113.277 63.1383 113.21 64.2231 113.992 64.9484C113.849 63.8011 113.253 62.9147 112.956 61.706C113.367 61.9314 113.516 62.013 113.699 62.1128C113.734 61.916 113.771 61.7098 113.807 61.5043C114.148 61.4397 114.484 61.3759 114.88 61.3005C114.986 61.4687 115.124 61.7172 115.288 61.9475C115.927 62.8434 115.931 62.8393 117.092 63.2523C117.222 63.2986 117.343 63.374 117.461 63.4486C118.361 64.0169 119.179 64.6572 119.674 65.6451C119.857 66.0104 120.107 66.6814 120.096 67.0704C120.093 67.1615 120.169 67.2683 120.236 67.3454C120.405 67.5413 120.328 67.7082 120.154 67.8072C119.646 68.0934 119.426 68.6568 118.976 68.9939C118.783 69.1376 118.749 69.329 118.714 69.5663C118.666 69.8894 118.032 70.3082 117.738 70.2402C117.555 70.198 117.437 69.8625 117.188 70.1098C117.057 70.2398 116.958 70.4014 116.842 70.5525Z" fill="black"/>
<path fill-rule="evenodd" clip-rule="evenodd" d="M80.2613 44.2277C80.0641 44.2605 79.8574 44.2944 79.572 44.3416C79.6847 44.5529 79.7651 44.7028 79.8491 44.8602C79.3128 45.3966 78.7544 45.955 78.1787 46.5311C78.0859 46.5311 77.9724 46.5141 77.8655 46.5336C76.5985 46.768 75.7548 46.049 75.051 45.1821C74.5014 44.5048 74.0288 43.7589 73.661 42.945C73.4315 42.4367 73.2265 41.9687 73.3905 41.2782C73.7749 42.1232 74.1174 42.8754 74.46 43.628C74.5209 43.6081 74.5817 43.5886 74.6431 43.5687C74.6153 43.4254 74.6112 43.2718 74.5557 43.14C74.3266 42.5958 74.0661 42.064 73.8503 41.5151C73.7546 41.272 73.5496 40.9692 74.0719 40.8561C74.233 40.8213 74.3274 40.4738 74.4504 40.268C74.5581 40.0874 74.6625 39.9047 74.7478 39.7589C75.276 39.7105 75.2809 40.1723 75.6102 40.3628C75.5336 40.0721 75.457 39.7813 75.3559 39.3986C75.5249 39.2648 75.7506 39.0858 75.9764 38.9065C76.1188 39.0482 76.3077 39.2739 76.4829 38.8576C76.6731 38.4078 76.9539 38.2326 77.4091 38.5279C77.4505 38.5548 77.5362 38.5755 77.5636 38.5532C78.0909 38.1187 78.4015 38.5515 78.6455 38.8837C79.2278 39.6777 79.502 40.6312 79.8508 41.5383C79.9328 41.7512 80.1113 42.2512 79.5107 42.2752C79.4768 42.2764 79.4507 42.4632 79.4213 42.5635C79.5464 42.5937 79.7386 42.6906 79.7862 42.6426C80.1229 42.305 80.3044 42.7457 80.2712 42.8232C80.0687 43.2991 80.538 43.7589 80.2613 44.2277Z" fill="black"/>
<path fill-rule="evenodd" clip-rule="evenodd" d="M76.1709 20.1232C76.3034 20.2557 76.4364 20.3887 76.6381 20.59C76.675 20.2706 76.7056 20.0072 76.7392 19.7198C77.2039 19.6224 77.6832 19.4998 78.1698 19.4277C78.4639 19.3843 78.7746 19.3855 79.0678 19.4306C79.2915 19.4654 79.1159 19.8821 79.533 19.9186C79.8026 19.9422 80.0097 20.4003 80.2015 20.7192C80.3572 20.9781 80.124 21.5385 80.7155 21.505C80.7358 21.8715 80.7561 22.2385 80.7772 22.6051C80.7789 22.6407 80.7872 22.6759 80.7926 22.7115L82.4709 24.3899C82.6507 24.3899 82.8412 24.3667 83.023 24.3953C83.3034 24.4404 83.6054 24.7183 83.4617 24.8906C83.1419 25.2738 83.7152 25.5385 83.4878 25.8512C82.6142 26.113 82.3388 26.1419 81.628 26.0177C81.8061 26.4025 81.961 26.738 82.1557 27.1596C82.0422 27.2686 81.8927 27.5341 81.7452 27.5332C80.8145 27.5262 79.8349 27.7623 79.0053 27.1016C78.7804 26.9223 78.5087 26.7819 78.3339 26.5628C77.935 26.0632 77.5779 25.5302 77.2139 25.0033C77.0345 24.7436 76.8813 24.4653 76.709 24.2002C76.4422 23.7897 76.5213 23.1982 76.0321 22.9045C76.1063 22.4067 75.8255 22.0302 75.6461 21.6006C75.4021 21.017 75.5533 20.4587 76.1709 20.1232Z" fill="black"/>
<path fill-rule="evenodd" clip-rule="evenodd" d="M41.3088 3.37879C41.7491 3.37879 42.0502 3.37838 42.351 3.37879C42.754 3.37962 43.1901 3.31211 43.2825 3.89448C43.2924 3.95909 43.4432 4.05808 43.5153 4.04773C43.9924 3.9769 44.1163 4.42797 44.4083 4.62637C45.2007 5.16483 45.3175 6.05163 45.5154 6.87175C45.6285 7.33939 45.4773 7.67489 44.9451 7.99341C44.3478 8.35087 43.6002 8.57288 43.1901 9.22234C42.8281 9.22939 42.532 9.7956 42.1091 9.34246C42.0478 9.27702 41.9119 9.25507 41.8112 9.25672C40.3856 9.28406 39.4934 8.4656 38.7482 7.37418C38.3701 6.82081 37.8966 6.32625 37.7483 5.64489C37.6875 5.3653 37.6518 5.07868 37.632 4.79329C37.6249 4.69968 37.68 4.53732 37.7454 4.51371C38.3191 4.30868 38.7362 3.8195 39.2925 3.62027C39.9784 3.37507 40.712 3.30134 41.3088 3.37879Z" fill="black"/>
<path fill-rule="evenodd" clip-rule="evenodd" d="M39.498 58.172C39.6633 58.4317 39.7846 58.6231 40.0207 58.9946C40.0738 58.6011 40.094 58.4665 40.1094 58.3315C40.1591 57.8837 40.1582 57.8846 40.724 57.827C40.7949 57.8195 40.9038 57.8291 40.9291 57.7889C41.1871 57.3821 41.5901 57.2682 41.9969 57.3908C42.4579 57.5296 42.9529 57.7036 43.3116 58.0059C44.7111 59.1856 45.5346 60.7666 46.1741 62.4441C46.2826 62.7303 46.1894 63.0932 46.1894 63.4162C46.0217 63.3976 45.89 63.3831 45.7578 63.3682C45.7864 63.7733 45.6949 64.0736 45.221 64.1692C45.079 64.1982 44.8847 64.4103 44.8706 64.5532C44.823 65.0411 44.3218 64.8034 44.147 65.0573C43.8678 64.6129 43.3874 65.1509 43.0734 64.8332C42.7727 64.5292 42.361 64.2948 42.1622 63.9377C41.7243 63.1511 41.3052 62.3327 41.0488 61.4761C40.9179 61.0379 40.7236 60.7467 40.3861 60.5479C39.8381 60.2261 39.4123 59.8181 39.1447 59.2382C38.9214 58.754 38.9119 58.7585 39.498 58.172Z" fill="black"/>
<path fill-rule="evenodd" clip-rule="evenodd" d="M60.669 45.0339C60.669 44.9217 60.6421 44.7655 60.6785 44.6255C60.703 44.5319 60.8633 44.4681 60.8773 44.3783C60.8927 44.2801 60.7775 44.1674 60.7763 44.0606C60.7754 43.9657 60.9088 43.8493 60.8827 43.7793C60.8351 43.6505 60.7282 43.5312 60.6185 43.4418C60.5456 43.3821 60.4242 43.3813 60.2743 43.3407C60.3447 43.5855 60.4014 43.7826 60.4586 43.9802C60.0597 43.7371 59.6165 43.5432 59.8116 42.9571C59.9764 43.0276 60.1384 43.0976 60.3393 43.1837C60.4039 42.4783 59.7499 42.8453 59.498 42.5115C59.8667 42.5549 60.1123 42.301 60.483 42.3503C60.6549 42.3731 60.8786 42.0078 61.142 41.7584C61.5078 42.0571 61.9178 42.3913 62.3975 42.7828C62.4443 42.4965 62.4778 42.2928 62.5184 42.0447C63.0606 41.9399 63.6164 41.8326 64.1785 41.7241C64.4672 42.0927 64.693 42.429 64.968 42.7186C65.2066 42.9687 65.5346 43.1357 65.7645 43.392C66.4131 44.1161 66.7072 45.0302 66.974 45.9344C67.0696 46.2579 67.1749 46.7699 66.5564 46.8564C66.5593 47.4504 65.9331 47.539 65.6506 47.9155C65.2964 48.3869 64.6702 48.4681 63.9942 48.1951C62.9819 47.7863 62.3167 46.996 61.6701 46.2264C61.3466 45.8408 60.9834 45.4771 60.669 45.0339Z" fill="black"/>
<path fill-rule="evenodd" clip-rule="evenodd" d="M79.2849 59.6829C79.4671 59.745 79.6432 59.8046 79.8449 59.8734C79.8859 58.9232 78.9038 58.6569 78.7671 57.7821C78.966 57.8699 79.1279 57.9072 79.2451 58.0004C79.4332 58.1503 79.5914 58.3367 79.8258 58.5711C79.7459 58.0948 79.6929 57.9855 79.4212 57.6595C80.0151 56.9413 80.0151 56.9413 80.7164 56.9388C81.102 57.3733 81.4313 57.9457 81.9254 58.2472C82.4709 58.5807 82.6316 59.1498 83.0338 59.5578C83.4182 59.9484 83.6733 60.4802 83.9281 60.9793C84.0681 61.2527 84.187 61.6019 84.1414 61.8893C84.0834 62.2526 83.9285 62.7865 83.6717 62.8896C83.2492 63.0598 83.3436 63.3585 83.2107 63.6153C83.0284 63.9661 82.7791 64.3074 82.3218 64.3828C82.0547 64.4267 81.7365 64.6305 81.5406 64.5423C81.0639 64.3273 80.5714 64.0535 80.2189 63.6778C79.5537 62.9687 78.9589 62.1888 78.3898 61.3985C78.2469 61.2005 78.3128 60.8526 78.2705 60.4611C78.4602 60.6144 78.5356 60.6749 78.6955 60.8037C78.6126 60.2275 79.1163 60.03 79.2849 59.6829Z" fill="black"/>
<path fill-rule="evenodd" clip-rule="evenodd" d="M73.346 101.112C73.0375 100.942 72.8888 100.861 72.7446 100.781C72.4907 101.699 72.4277 101.746 71.6776 101.416C71.8756 101.877 72.0343 102.246 72.207 102.646C72.0111 102.76 71.8106 102.877 71.608 102.994C71.2419 102.629 70.8704 102.257 70.4644 101.851C70.2201 102.401 70.8927 102.656 70.8264 103.187C70.223 103.271 69.873 102.861 69.5254 102.483C69.3357 102.277 69.233 101.989 69.0375 101.79C68.166 100.905 67.3832 99.9488 66.6534 98.9464C66.5879 98.8565 66.4972 98.7845 66.416 98.7066C65.9761 98.287 65.5151 97.8815 65.4824 97.1976C65.9215 96.9288 66.1547 97.343 66.4533 97.5994C66.7569 97.097 66.0544 97.0299 66.0859 96.6596C66.1128 96.2131 66.9624 96.7826 66.7466 96.0528H67.9697C68.3197 96.2992 68.6747 96.5432 69.0226 96.7963C69.3718 97.0502 69.6025 97.4151 70.0299 97.6218C70.445 97.8231 70.72 98.2978 71.0853 98.6196C71.3235 98.8296 71.4747 99.1183 71.8553 99.2127C72.1308 99.2807 72.2778 99.6986 72.6961 99.6447C72.8125 99.6294 73.0225 99.8398 73.0818 99.9894C73.1948 100.274 73.2296 100.59 73.346 101.112Z" fill="black"/>
<path fill-rule="evenodd" clip-rule="evenodd" d="M65.5846 25.562C65.9731 25.5877 66.2415 25.3868 66.5969 25.6432C66.4163 25.7053 66.2854 25.7504 66.1425 25.7997C66.2759 26.2524 66.4242 26.7023 66.5331 27.1612C66.5609 27.2788 66.4991 27.5112 66.4176 27.5456C65.9644 27.7369 65.8273 28.2245 65.4744 28.4916C65.3183 28.6101 65.0842 28.6486 64.88 28.6718C64.7777 28.683 64.6572 28.5285 64.5549 28.5392C64.4302 28.5525 64.3159 28.6614 64.1846 28.736C63.9907 28.0509 64.0007 28.0232 63.2373 27.763C62.7804 27.6073 62.6856 27.1583 62.3617 26.8758C62.2892 27.0303 62.2192 27.1794 62.1409 27.3468C62.027 27.2275 61.8352 27.119 61.8357 27.0113C61.8415 25.6655 61.8402 25.6353 61.226 24.8288C60.8797 25.4373 61.5432 25.7894 61.5793 26.3846C61.4148 26.3589 61.1692 26.3779 61.1406 26.3079C60.8519 25.6063 60.412 24.9436 60.8631 24.1019C61.0031 23.8406 61.0284 23.7035 61.3428 23.6981C61.5366 23.6952 61.7449 23.5813 61.9177 23.4719C62.3654 23.189 62.7966 22.8808 63.275 22.5549C63.3844 22.7181 63.4854 22.8692 63.461 22.8324C63.8383 23.0954 64.2318 22.3871 64.2948 23.1256C64.313 23.3352 64.7815 22.8353 64.7815 23.3841C64.7815 23.5962 65.1712 23.8087 65.3671 24.0046C65.2971 24.186 65.2309 24.3591 65.1642 24.5323C65.2197 24.5708 65.2752 24.6093 65.3311 24.6478C65.4293 24.461 65.5274 24.2742 65.6513 24.0394C65.853 24.3823 65.9702 24.5807 66.1239 24.8413C65.957 25.0641 65.771 25.313 65.5846 25.562Z" fill="black"/>
<path fill-rule="evenodd" clip-rule="evenodd" d="M27.6148 59.3028C27.3547 58.9747 27.1489 58.715 26.9202 58.4259C26.8038 58.6641 26.7297 58.8153 26.6332 59.0124C26.1987 58.8087 25.9063 58.4723 25.6573 58.1215C25.1073 57.3457 24.6819 56.49 24.1244 55.7129C23.7814 55.2353 23.7611 54.6352 23.8966 54.0139C24.4114 53.9095 24.5228 54.5146 24.9519 54.6675V53.5678C25.7629 53.4534 26.5445 53.3433 27.2611 53.2426C28.0129 53.9178 28.5079 54.6472 28.8587 55.4897C29.0592 55.9697 29.4721 56.3301 29.5976 56.8793C29.6473 57.0963 29.369 57.3884 29.7115 57.5499C29.7173 57.5524 29.6096 57.8166 29.6063 57.8154C29.0471 57.6137 28.8591 58.4247 28.3211 58.2946C28.2863 58.2859 28.191 58.4939 28.1376 58.6078C28.0783 58.7329 28.0518 58.8762 27.9789 58.9913C27.9251 59.0775 27.8207 59.1313 27.6148 59.3028Z" fill="black"/>
<path fill-rule="evenodd" clip-rule="evenodd" d="M52.6345 72.9646C52.7961 73.3382 52.9137 73.6103 53.0819 73.9984C53.1887 73.7155 53.238 73.5859 53.2902 73.4483C53.3407 73.4794 53.4236 73.5009 53.4343 73.5415C53.5362 73.9288 53.7201 74.2598 53.9997 74.5538C54.1671 74.7299 54.288 74.9564 54.4019 75.1747C54.6028 75.5612 54.8878 75.825 55.3492 75.907C55.4217 75.7604 55.4962 75.6088 55.531 75.5384C55.7448 75.6983 55.9771 75.8727 56.1503 76.0023C56.1503 76.1431 56.1652 76.2036 56.1482 76.2148C55.9436 76.3477 55.7344 76.4733 55.5435 76.5901C55.599 76.8986 55.6487 77.1782 55.7236 77.597C55.3852 77.4325 55.2001 77.3422 54.9333 77.2122C54.7855 77.5096 54.6372 77.8086 54.4777 78.1301C54.3261 78.147 54.1484 78.1677 53.931 78.1922V78.6942C53.3635 79.1192 52.8992 79.062 52.4071 78.6134C51.8712 78.1247 51.2668 77.7117 50.7201 77.1298C50.95 76.9777 51.172 76.8311 51.4155 76.6704C51.2913 76.2148 51.068 75.808 50.7462 75.4104C50.4243 75.0124 50.2479 74.4963 50.0164 74.0481C50.3473 73.6401 50.6087 73.9421 50.9123 74.0696C50.9251 73.9557 50.9777 73.8344 50.9417 73.7524C50.7151 73.2429 50.8133 72.9911 51.2933 72.9691C51.744 72.948 52.1963 72.9646 52.6345 72.9646Z" fill="black"/>
<path fill-rule="evenodd" clip-rule="evenodd" d="M20.4851 77.4312C20.6744 77.7112 20.8289 77.9403 21.0219 78.2257C21.072 78.0695 21.1408 77.9689 21.125 77.8848C21.048 77.4768 20.9482 77.0734 20.8438 76.6132H21.5003C21.557 76.7312 21.6266 76.8758 21.7641 77.162V76.2392C21.8925 76.194 22.0019 76.1803 22.0785 76.1236C22.2537 75.9931 22.5312 75.697 22.5598 75.7202C22.8469 75.9563 23.2014 75.8138 23.4798 75.9206C23.8948 76.0797 24.2891 76.3572 24.2837 76.8866C24.2821 77.0448 24.0725 77.2208 24.104 77.3538C24.1296 77.4619 24.4196 77.4859 24.5061 77.6081C24.577 77.7079 24.5828 77.9755 24.5099 78.0339C24.217 78.2675 24.2816 78.5699 24.3015 78.8532C24.3268 79.2069 24.1719 79.4219 23.8579 79.5109C23.5224 79.6062 23.4441 79.8212 23.3737 80.1422C23.2739 80.5957 22.9628 80.8973 22.4368 80.8749C22.255 80.8674 22.0665 80.8716 21.89 80.9101C21.4411 81.0083 20.8753 80.9006 20.7353 80.5713C20.3935 79.7677 19.899 79.0085 19.9909 78.0629C20.027 77.6942 20.249 77.5894 20.4851 77.4312Z" fill="black"/>
<path fill-rule="evenodd" clip-rule="evenodd" d="M56.7102 57.1088C56.9911 57.1913 57.2843 57.277 57.6447 57.3826C57.7975 57.0185 57.8427 56.6689 57.5204 56.3438C57.9164 55.9839 58.1798 56.5265 58.5679 56.4676C58.604 56.2717 58.6425 56.0655 58.6798 55.8633C58.9838 55.5378 59.258 56.1384 59.6254 55.855C60.0011 55.5651 60.0959 56.191 60.4153 56.2626C60.5946 56.3028 60.7624 56.4896 60.8903 56.647C61.3145 57.1672 61.3808 57.9033 61.9519 58.3576C62.0886 58.4662 62.0157 58.8394 62.0464 59.1711C61.4131 58.8601 61.3745 59.8649 60.7644 59.6268C60.5768 59.9304 60.7541 60.4808 60.0677 60.5467C59.9953 60.4233 59.8818 60.2298 59.7202 59.954C59.5827 60.241 59.516 60.3802 59.4477 60.5235C59.0633 60.6146 58.8873 60.2833 58.7609 60.0724C58.3413 59.3704 57.7979 58.8331 57.095 58.4131C56.6626 58.1547 56.4253 57.7334 56.7102 57.1088Z" fill="black"/>
<path fill-rule="evenodd" clip-rule="evenodd" d="M51.2141 27.0972C50.681 27.5148 50.2879 27.8229 49.7805 28.221H48.8316C48.4621 27.6867 48.342 26.9838 47.7973 26.5426C47.7402 25.7987 47.2258 25.3377 46.7788 24.8191C46.6368 24.6539 46.6674 24.3399 46.6069 24.0326C46.7701 23.987 46.9317 23.9903 47.0162 23.9112C47.8831 23.1006 48.6999 23.5562 49.3908 24.1092C49.9806 24.581 50.4785 25.2052 50.8964 25.8406C51.1333 26.2005 51.1271 26.7203 51.2141 27.0972Z" fill="black"/>
</svg>
